<svg width = "2000" height = "2000" version = "1.1" xmlns = "http://www.w3.org/2000/svg">
<svg x="0" y="0" overflow = "visible">
<ellipse cx="0" cy="0" rx="10.000000" ry="10.000000" stroke="red" fill="red" stroke-width="4" fill-opacity ="1.000000" transform = "rotate(0.000000) translate(1000,1000) scale(10.000000) "/>
<polygon points="660, 300 653, 327 634, 349 607, 359 578, 356 555, 339 541, 314 541, 285 555, 260 578, 243 607, 240 634, 250 653, 272 " stroke = "black" fill = "black" stroke-width = "2" fill-opacity ="1.000000" transform = "rotate(0.000000) translate(0,0) scale(1.000000) "/>
<polygon points="180, 700 171, 721 150, 730 128, 721 120, 700 128, 678 150, 670 171, 678 " stroke = "black" fill = "black" stroke-width = "2" fill-opacity ="1.000000" transform = "rotate(0.000000) translate(0,0) scale(1.000000) "/>
<polygon points="1230, 400 1218, 423 1193, 429 1172, 413 1172, 386 1193, 370 1218, 376 " stroke = "black" fill = "black" stroke-width = "2" fill-opacity ="1.000000" transform = "rotate(0.000000) translate(0,0) scale(1.000000) "/>
<polygon points="640, 700 620, 734 580, 734 560, 700 580, 665 620, 665 " stroke = "red" fill = "black" stroke-width = "1" fill-opacity ="1.000000" transform = "rotate(20.000000) translate(0,0) scale(1.000000) "/>
<polygon points="30, 0 9, 28 -24, 17 -24, -17 9, -28 " stroke = "black" fill = "black" stroke-width = "2" fill-opacity ="1.000000" transform = "rotate(0.000000) translate(200,500) scale(1.000000) "/>
<rect x="0" y="0" width="10" height="10" stroke="blue" fill="#115c25" stroke-width="3" fill-opacity ="0.500000" transform = "rotate(0.000000) translate(200,200) scale(4.000000) "/>
<polygon points="100,100 200, 100 100, 200 " stroke = "red" fill = "red" stroke-width = "2" fill-opacity ="0.800000" transform = "rotate(20.000000) translate(0,0) scale(1.500000) "/>
<line x1="0" x2="10" y1="0" y2="10" stroke="black" stroke-width="1" transform = "rotate(0.000000) translate(800,800) scale(1.000000) "/>
<text x="1500" y="1500" font-family="Verdana" font-size="20" stroke="black" fill="black" stroke-width="3" fill-opacity ="1.000000" transform = "rotate(0.000000) translate(0,0) scale(1.000000) ">Test Text</text>
</svg>
</svg>